<svg width="19" height="16" viewBox="0 0 19 16" fill="none" xmlns="http://www.w3.org/2000/svg">
<path d="M4.4168 9.25004C5.28038 9.02433 6.92268 7.93058 7.33347 7.58337V4.66671L4.83347 3.83337C4.6623 3.15821 4.13118 1.79634 3.58347 1.33337L2.98004 3.21417C1.89601 3.69642 0.124946 5.87042 1.08346 8.41671C1.50013 9.25004 2.36551 12.1667 3.58347 14.25" stroke="white" stroke-width="1.44841" stroke-linecap="round" stroke-linejoin="round"/>
<path d="M9.00005 3.50224C10.8297 3.19953 14.6353 3.53249 15.2208 7.28595C15.3428 7.84095 15.1476 10.5036 13.3911 11.7144C13.0373 11.9583 12.75 12.9999 12.75 14.2499" stroke="white" stroke-width="1.44841" stroke-linecap="round" stroke-linejoin="round"/>
<path d="M9.83338 14.6667C9.83338 13.7462 9.08717 13 8.16671 13C7.24625 13 6.50005 13.7462 6.50005 14.6667" stroke="white" stroke-width="1.44841" stroke-linecap="round"/>
<path d="M15.25 7.99996C15.4584 8.41663 16.3744 8.69558 17.0116 8.04233C17.3825 7.66204 17.6862 6.47242 16.7492 5.91663" stroke="white" stroke-width="1.44841" stroke-linecap="round" stroke-linejoin="round"/>
</svg>
